<?xml version="1.0" encoding="UTF-8" standalone="no"?>
<!-- Created with Inkscape (http://www.inkscape.org/) -->

<svg
   width="135.60478mm"
   height="35.063122mm"
   viewBox="0 0 135.60478 35.063122"
   version="1.1"
   id="svg944"
   xmlns="http://www.w3.org/2000/svg"
   xmlns:svg="http://www.w3.org/2000/svg">
  <defs
     id="defs941" />
  <g
     id="layer1"
     transform="translate(-218.95458,-20.283533)">
    <g
       id="g592">
      <path
         d="M 229.10347,45.401941 V 30.228246 h 3.42255 v 12.287899 h 6.00693 v 2.885796 z"
         id="path486"
         style="font-weight:bold;font-size:23.2776px;line-height:1.25;font-family:'Source Sans Pro';-inkscape-font-specification:'Source Sans Pro Bold';text-align:center;letter-spacing:-0.654683px;word-spacing:0px;white-space:pre;fill:#3d3846;stroke-width:1.40256;paint-order:markers fill stroke" />
      <path
         d="m 245.07241,45.681211 q -1.65307,0 -2.98018,-0.721449 -1.3271,-0.721448 -2.09543,-2.071256 -0.76833,-1.349807 -0.76833,-3.258155 0,-1.885076 0.76833,-3.234882 0.79161,-1.349808 2.04887,-2.071257 1.25727,-0.744721 2.63094,-0.744721 1.65307,0 2.72407,0.744721 1.09429,0.721449 1.62979,1.978166 0.55878,1.233445 0.55878,2.815977 0,0.442178 -0.0466,0.884357 -0.0465,0.418905 -0.0931,0.628358 h -6.91494 q 0.23282,1.256717 1.04772,1.861803 0.81488,0.581814 1.95574,0.581814 1.23398,0 2.49124,-0.767994 l 1.14085,2.071255 q -0.88474,0.605087 -1.97903,0.954175 -1.09428,0.349088 -2.11872,0.349088 z m -2.56109,-7.307577 h 4.1676 q 0,-0.954174 -0.46565,-1.55926 -0.44238,-0.628359 -1.46681,-0.628359 -0.79161,0 -1.42025,0.558542 -0.62862,0.535267 -0.81489,1.629077 z"
         id="path488"
         style="font-weight:bold;font-size:23.2776px;line-height:1.25;font-family:'Source Sans Pro';-inkscape-font-specification:'Source Sans Pro Bold';text-align:center;letter-spacing:-0.654683px;word-spacing:0px;white-space:pre;fill:#3d3846;stroke-width:1.40256;paint-order:markers fill stroke" />
      <path
         d="m 253.96344,45.681211 q -1.58322,0 -2.51453,-1.000719 -0.9313,-1.023992 -0.9313,-2.490162 0,-1.815258 1.53665,-2.839249 1.53665,-1.023992 4.95921,-1.37308 -0.0466,-0.767993 -0.46565,-1.210172 -0.39581,-0.465451 -1.35041,-0.465451 -0.72175,0 -1.4668,0.27927 -0.74505,0.279271 -1.58322,0.767994 l -1.23398,-2.257436 q 1.09428,-0.674903 2.32827,-1.093809 1.25726,-0.418906 2.60766,-0.418906 2.21185,0 3.39926,1.27999 1.18741,1.279989 1.18741,3.933058 v 6.609402 h -2.79392 l -0.23282,-1.1869 h -0.0931 q -0.72176,0.651631 -1.55994,1.070537 -0.81489,0.395633 -1.79276,0.395633 z m 1.16413,-2.653069 q 0.58206,0 1.00116,-0.255998 0.44236,-0.279271 0.88474,-0.721449 v -2.024711 q -1.81606,0.232725 -2.51453,0.744721 -0.69848,0.488724 -0.69848,1.163627 0,0.558541 0.34924,0.837812 0.37252,0.255998 0.97787,0.255998 z"
         id="path490"
         style="font-weight:bold;font-size:23.2776px;line-height:1.25;font-family:'Source Sans Pro';-inkscape-font-specification:'Source Sans Pro Bold';text-align:center;letter-spacing:-0.654683px;word-spacing:0px;white-space:pre;fill:#3d3846;stroke-width:1.40256;paint-order:markers fill stroke" />
      <path
         d="m 262.66821,45.401941 v -11.54318 h 2.79392 l 0.23283,2.024712 h 0.0931 q 0.62862,-1.163627 1.51337,-1.722168 0.88474,-0.581814 1.76948,-0.581814 0.48894,0 0.8149,0.06982 0.32595,0.04655 0.55878,0.162908 l -0.55878,2.955612 q -0.30268,-0.09309 -0.60535,-0.139635 -0.27939,-0.04655 -0.65193,-0.04655 -0.65191,0 -1.37366,0.488724 -0.69849,0.465451 -1.16414,1.629078 v 6.702491 z"
         id="path492"
         style="font-weight:bold;font-size:23.2776px;line-height:1.25;font-family:'Source Sans Pro';-inkscape-font-specification:'Source Sans Pro Bold';text-align:center;letter-spacing:-0.654683px;word-spacing:0px;white-space:pre;fill:#3d3846;stroke-width:1.40256;paint-order:markers fill stroke" />
      <path
         d="m 271.27985,45.401941 v -11.54318 h 2.79392 l 0.23283,1.466171 h 0.0931 q 0.74504,-0.698177 1.62978,-1.210172 0.90803,-0.535269 2.07216,-0.535269 1.88589,0 2.72408,1.256718 0.86145,1.233444 0.86145,3.39779 v 7.167942 h -3.42255 v -6.725764 q 0,-1.256717 -0.34924,-1.722168 -0.32596,-0.465451 -1.071,-0.465451 -0.65192,0 -1.11757,0.302544 -0.46565,0.27927 -1.02444,0.814538 v 7.796301 z"
         id="path494"
         style="font-weight:bold;font-size:23.2776px;line-height:1.25;font-family:'Source Sans Pro';-inkscape-font-specification:'Source Sans Pro Bold';text-align:center;letter-spacing:-0.654683px;word-spacing:0px;white-space:pre;fill:#3d3846;stroke-width:1.40256;paint-order:markers fill stroke" />
      <path
         d="M 288.22376,45.401941 V 30.228246 h 3.7485 l 2.44468,6.749036 q 0.23282,0.65163 0.44237,1.37308 0.20954,0.721449 0.44237,1.419625 h 0.0931 q 0.23283,-0.698176 0.41909,-1.419625 0.20954,-0.72145 0.44237,-1.37308 l 2.39811,-6.749036 h 3.72523 v 15.173695 h -3.11988 v -5.562137 q 0,-0.744721 0.0698,-1.65235 0.0931,-0.930902 0.18626,-1.861803 0.11642,-0.930902 0.18626,-1.652351 h -0.0931 l -1.23398,3.607244 -2.16529,5.794861 h -1.88589 L 292.15849,38.280544 290.9478,34.6733 h -0.0931 q 0.0931,0.721449 0.18626,1.652351 0.0931,0.930901 0.16297,1.861803 0.0931,0.907629 0.0931,1.65235 v 5.562137 z"
         id="path496"
         style="font-weight:bold;font-size:23.2776px;line-height:1.25;font-family:'Source Sans Pro';-inkscape-font-specification:'Source Sans Pro Bold';text-align:center;letter-spacing:-0.654683px;word-spacing:0px;white-space:pre;fill:#3d3846;stroke-width:1.40256;paint-order:markers fill stroke" />
      <path
         d="m 307.91796,45.401941 v -5.399229 l -4.58669,-9.774466 h 3.67866 l 1.35039,3.490881 q 0.32596,0.861084 0.62864,1.675622 0.30268,0.791266 0.60534,1.675623 h 0.0931 q 0.32596,-0.884357 0.65192,-1.675623 0.32596,-0.814538 0.62863,-1.675622 l 1.37368,-3.490881 h 3.58553 l -4.58669,9.774466 v 5.399229 z"
         id="path498"
         style="font-weight:bold;font-size:23.2776px;line-height:1.25;font-family:'Source Sans Pro';-inkscape-font-specification:'Source Sans Pro Bold';text-align:center;letter-spacing:-0.654683px;word-spacing:0px;white-space:pre;fill:#3d3846;stroke-width:1.40256;paint-order:markers fill stroke" />
      <path
         d="m 322.62964,45.681211 q -2.04888,0 -3.60882,-0.954174 -1.53665,-0.954174 -2.42139,-2.722887 -0.86146,-1.791985 -0.86146,-4.258875 0,-2.490161 0.86146,-4.212329 0.88474,-1.74544 2.42139,-2.653069 1.55994,-0.930901 3.60882,-0.930901 2.04887,0 3.58553,0.930901 1.55994,0.907629 2.42139,2.653069 0.88475,1.745441 0.88475,4.212329 0,2.46689 -0.88475,4.258875 -0.86145,1.768713 -2.42139,2.722887 -1.53666,0.954174 -3.58553,0.954174 z m 0,-2.955612 q 1.55994,0 2.46796,-1.349808 0.90802,-1.349807 0.90802,-3.630516 0,-2.280708 -0.90802,-3.560697 -0.90802,-1.27999 -2.46796,-1.27999 -1.55994,0 -2.46797,1.27999 -0.90802,1.279989 -0.90802,3.560697 0,2.280709 0.90802,3.630516 0.90803,1.349808 2.46797,1.349808 z"
         id="path500"
         style="font-weight:bold;font-size:23.2776px;line-height:1.25;font-family:'Source Sans Pro';-inkscape-font-specification:'Source Sans Pro Bold';text-align:center;letter-spacing:-0.654683px;word-spacing:0px;white-space:pre;fill:#3d3846;stroke-width:1.40256;paint-order:markers fill stroke" />
      <path
         d="m 338.43561,45.681211 q -2.07216,0 -3.7718,-0.884357 -1.67634,-0.884356 -2.6775,-2.606524 -0.97787,-1.74544 -0.97787,-4.282146 0,-2.513435 1.00116,-4.282148 1.02443,-1.791985 2.70078,-2.722887 1.67636,-0.954173 3.70195,-0.954173 1.65307,0 2.84049,0.605085 1.1874,0.605087 1.93246,1.373081 l -1.79277,2.187618 q -0.58207,-0.511996 -1.23398,-0.861084 -0.65191,-0.349088 -1.62979,-0.349088 -1.76948,0 -2.88705,1.303262 -1.11757,1.303262 -1.11757,3.583971 0,2.327254 1.07101,3.630515 1.071,1.303263 3.18972,1.303263 0.46565,0 0.90803,-0.116363 0.44236,-0.116363 0.72175,-0.349088 v -2.606524 h -2.51452 v -2.792705 h 5.54127 v 6.981761 q -0.79161,0.767994 -2.11872,1.303262 -1.30383,0.535269 -2.88705,0.535269 z"
         id="path502"
         style="font-weight:bold;font-size:23.2776px;line-height:1.25;font-family:'Source Sans Pro';-inkscape-font-specification:'Source Sans Pro Bold';text-align:center;letter-spacing:-0.654683px;word-spacing:0px;white-space:pre;fill:#3d3846;stroke-width:1.40256;paint-order:markers fill stroke" />
      <rect
         style="fill:none;stroke:#3d3846;stroke-width:3.31312;stroke-miterlimit:4;stroke-dasharray:none;paint-order:markers fill stroke;stop-color:#000000"
         id="rect448"
         width="132.29167"
         height="31.75"
         x="220.61115"
         y="21.940092" />
    </g>
  </g>
</svg>
