<?xml version="1.0" encoding="UTF-8" standalone="no"?>
<!-- Created with Inkscape (http://www.inkscape.org/) -->

<svg
   width="77.396439mm"
   height="56.229782mm"
   viewBox="0 0 77.396439 56.229782"
   version="1.1"
   id="svg944"
   xmlns="http://www.w3.org/2000/svg"
   xmlns:svg="http://www.w3.org/2000/svg">
  <defs
     id="defs941" />
  <g
     id="layer1"
     transform="translate(-218.95458,-96.483533)">
    <g
       id="g616">
      <rect
         style="fill:none;stroke:#3d3846;stroke-width:3.31312;stroke-miterlimit:4;stroke-dasharray:none;paint-order:markers fill stroke;stop-color:#000000"
         id="rect452"
         width="74.083336"
         height="52.916668"
         x="220.61113"
         y="98.140091" />
      <path
         d="m 231.36613,122.52063 v -15.1737 h 3.42255 v 12.28791 h 6.00693 v 2.88579 z"
         id="path524"
         style="font-weight:bold;font-size:23.2776px;line-height:1.25;font-family:'Source Sans Pro';-inkscape-font-specification:'Source Sans Pro Bold';text-align:center;letter-spacing:-0.654683px;word-spacing:0px;white-space:pre;fill:#3d3846;stroke-width:1.40256;paint-order:markers fill stroke" />
      <path
         d="m 247.33507,122.7999 q -1.65307,0 -2.98018,-0.72145 -1.32711,-0.72145 -2.09544,-2.07125 -0.76833,-1.34981 -0.76833,-3.25816 0,-1.88507 0.76833,-3.23488 0.79161,-1.34981 2.04888,-2.07126 1.25726,-0.74472 2.63094,-0.74472 1.65307,0 2.72407,0.74472 1.09428,0.72145 1.62979,1.97817 0.55878,1.23344 0.55878,2.81598 0,0.44217 -0.0466,0.88435 -0.0466,0.4189 -0.0931,0.62836 h -6.91495 q 0.23282,1.25672 1.04772,1.8618 0.81489,0.58182 1.95574,0.58182 1.23398,0 2.49125,-0.768 l 1.14085,2.07125 q -0.88474,0.60509 -1.97903,0.95418 -1.09428,0.34909 -2.11872,0.34909 z m -2.56109,-7.30758 h 4.1676 q 0,-0.95417 -0.46566,-1.55926 -0.44237,-0.62835 -1.4668,-0.62835 -0.79162,0 -1.42025,0.55853 -0.62863,0.53528 -0.81489,1.62908 z"
         id="path526"
         style="font-weight:bold;font-size:23.2776px;line-height:1.25;font-family:'Source Sans Pro';-inkscape-font-specification:'Source Sans Pro Bold';text-align:center;letter-spacing:-0.654683px;word-spacing:0px;white-space:pre;fill:#3d3846;stroke-width:1.40256;paint-order:markers fill stroke" />
      <path
         d="m 256.22609,122.7999 q -1.58322,0 -2.51452,-1.00072 -0.93131,-1.02399 -0.93131,-2.49016 0,-1.81526 1.53666,-2.83925 1.53665,-1.02399 4.9592,-1.37308 -0.0466,-0.768 -0.46565,-1.21017 -0.3958,-0.46545 -1.35039,-0.46545 -0.72177,0 -1.46681,0.27927 -0.74505,0.27927 -1.58322,0.76799 l -1.23398,-2.25744 q 1.09428,-0.6749 2.32826,-1.0938 1.25727,-0.41891 2.60766,-0.41891 2.21185,0 3.39927,1.27999 1.18741,1.27999 1.18741,3.93306 v 6.6094 h -2.79391 l -0.23283,-1.1869 h -0.0931 q -0.72176,0.65163 -1.55994,1.07054 -0.81489,0.39563 -1.79277,0.39563 z m 1.16414,-2.65307 q 0.58206,0 1.00115,-0.256 0.44237,-0.27927 0.88474,-0.72145 v -2.02471 q -1.81604,0.23273 -2.51452,0.74473 -0.69848,0.48871 -0.69848,1.16362 0,0.55854 0.34924,0.83781 0.37252,0.256 0.97787,0.256 z"
         id="path528"
         style="font-weight:bold;font-size:23.2776px;line-height:1.25;font-family:'Source Sans Pro';-inkscape-font-specification:'Source Sans Pro Bold';text-align:center;letter-spacing:-0.654683px;word-spacing:0px;white-space:pre;fill:#3d3846;stroke-width:1.40256;paint-order:markers fill stroke" />
      <path
         d="m 264.93087,122.52063 v -11.54318 h 2.79391 l 0.23283,2.02471 h 0.0931 q 0.62863,-1.16363 1.51337,-1.72217 0.88475,-0.58181 1.76949,-0.58181 0.48893,0 0.81489,0.0698 0.32596,0.0465 0.55878,0.16291 l -0.55878,2.95562 q -0.30267,-0.0931 -0.60535,-0.13964 -0.27939,-0.0466 -0.65191,-0.0466 -0.65192,0 -1.37368,0.48872 -0.69848,0.46545 -1.16413,1.62908 v 6.70249 z"
         id="path530"
         style="font-weight:bold;font-size:23.2776px;line-height:1.25;font-family:'Source Sans Pro';-inkscape-font-specification:'Source Sans Pro Bold';text-align:center;letter-spacing:-0.654683px;word-spacing:0px;white-space:pre;fill:#3d3846;stroke-width:1.40256;paint-order:markers fill stroke" />
      <path
         d="m 273.54251,122.52063 v -11.54318 h 2.79392 l 0.23282,1.46617 h 0.0931 q 0.74504,-0.69818 1.62978,-1.21017 0.90803,-0.53527 2.07216,-0.53527 1.88589,0 2.72407,1.25672 0.86146,1.23344 0.86146,3.39779 v 7.16794 h -3.42255 v -6.72577 q 0,-1.25671 -0.34924,-1.72216 -0.32596,-0.46545 -1.07101,-0.46545 -0.65191,0 -1.11756,0.30254 -0.46566,0.27927 -1.02444,0.81454 v 7.7963 z"
         id="path532"
         style="font-weight:bold;font-size:23.2776px;line-height:1.25;font-family:'Source Sans Pro';-inkscape-font-specification:'Source Sans Pro Bold';text-align:center;letter-spacing:-0.654683px;word-spacing:0px;white-space:pre;fill:#3d3846;stroke-width:1.40256;paint-order:markers fill stroke" />
      <path
         d="m 231.04504,141.57064 v -15.17369 h 3.74851 l 2.44468,6.74903 q 0.23282,0.65163 0.44237,1.37308 0.20954,0.72144 0.44237,1.41962 h 0.0931 q 0.23283,-0.69818 0.41909,-1.41962 0.20954,-0.72145 0.44237,-1.37308 l 2.39811,-6.74903 h 3.72523 v 15.17369 h -3.11988 v -5.56214 q 0,-0.74472 0.0699,-1.65234 0.0931,-0.93091 0.18626,-1.86181 0.11641,-0.93091 0.18626,-1.65235 h -0.0931 l -1.23398,3.60725 -2.16529,5.79486 h -1.88589 l -2.16529,-5.79486 -1.2107,-3.60725 h -0.0931 q 0.0931,0.72144 0.18626,1.65235 0.0931,0.9309 0.16298,1.86181 0.0931,0.90762 0.0931,1.65234 v 5.56214 z"
         id="path535"
         style="font-weight:bold;font-size:23.2776px;line-height:1.25;font-family:'Source Sans Pro';-inkscape-font-specification:'Source Sans Pro Bold';text-align:center;letter-spacing:-1.32292px;word-spacing:0px;white-space:pre;fill:#3d3846;stroke-width:1.40256;paint-order:markers fill stroke" />
      <path
         d="m 250.07086,141.57064 v -5.39923 l -4.58669,-9.77446 h 3.67867 l 1.35039,3.49088 q 0.32596,0.86108 0.62863,1.67561 0.30268,0.79127 0.60535,1.67563 h 0.0931 q 0.32596,-0.88436 0.65192,-1.67563 0.32595,-0.81453 0.62863,-1.67561 l 1.37367,-3.49088 h 3.58554 l -4.58669,9.77446 v 5.39923 z"
         id="path537"
         style="font-weight:bold;font-size:23.2776px;line-height:1.25;font-family:'Source Sans Pro';-inkscape-font-specification:'Source Sans Pro Bold';text-align:center;letter-spacing:-1.32292px;word-spacing:0px;white-space:pre;fill:#3d3846;stroke-width:1.40256;paint-order:markers fill stroke" />
      <path
         d="m 264.11416,141.84991 q -2.04887,0 -3.60881,-0.95418 -1.53666,-0.95417 -2.4214,-2.72288 -0.86146,-1.79198 -0.86146,-4.25888 0,-2.49016 0.86146,-4.21232 0.88474,-1.74544 2.4214,-2.65307 1.55994,-0.9309 3.60881,-0.9309 2.04888,0 3.58553,0.9309 1.55994,0.90763 2.4214,2.65307 0.88474,1.74544 0.88474,4.21232 0,2.4669 -0.88474,4.25888 -0.86146,1.76871 -2.4214,2.72288 -1.53665,0.95418 -3.58553,0.95418 z m 0,-2.95561 q 1.55994,0 2.46797,-1.34981 0.90802,-1.3498 0.90802,-3.63052 0,-2.2807 -0.90802,-3.56069 -0.90803,-1.27999 -2.46797,-1.27999 -1.55994,0 -2.46796,1.27999 -0.90802,1.27999 -0.90802,3.56069 0,2.28072 0.90802,3.63052 0.90802,1.34981 2.46796,1.34981 z"
         id="path539"
         style="font-weight:bold;font-size:23.2776px;line-height:1.25;font-family:'Source Sans Pro';-inkscape-font-specification:'Source Sans Pro Bold';text-align:center;letter-spacing:-1.32292px;word-spacing:0px;white-space:pre;fill:#3d3846;stroke-width:1.40256;paint-order:markers fill stroke" />
      <path
         d="m 279.25175,141.84991 q -2.07215,0 -3.77179,-0.88436 -1.67635,-0.88436 -2.6775,-2.60652 -0.97787,-1.74544 -0.97787,-4.28215 0,-2.51344 1.00115,-4.28214 1.02444,-1.79199 2.70079,-2.72289 1.67635,-0.95417 3.70194,-0.95417 1.65307,0 2.84049,0.60508 1.18741,0.60509 1.93246,1.37308 l -1.79277,2.18762 q -0.58206,-0.512 -1.23398,-0.86109 -0.65191,-0.34908 -1.62979,-0.34908 -1.76948,0 -2.88705,1.30326 -1.11756,1.30326 -1.11756,3.58397 0,2.32726 1.071,3.63051 1.071,1.30327 3.18972,1.30327 0.46566,0 0.90803,-0.11637 0.44237,-0.11636 0.72176,-0.34908 v -2.60653 h -2.51453 v -2.79271 h 5.54128 v 6.98177 q -0.79161,0.76799 -2.11873,1.30326 -1.30382,0.53527 -2.88705,0.53527 z"
         id="path541"
         style="font-weight:bold;font-size:23.2776px;line-height:1.25;font-family:'Source Sans Pro';-inkscape-font-specification:'Source Sans Pro Bold';text-align:center;letter-spacing:-1.32292px;word-spacing:0px;white-space:pre;fill:#3d3846;stroke-width:1.40256;paint-order:markers fill stroke" />
    </g>
  </g>
</svg>
